<svg xmlns="http://www.w3.org/2000/svg" width="26.238" height="23.061" viewBox="0 0 26.238 23.061"><defs><style>.a{fill:#4f32fe;}</style></defs><path class="a" d="M8.507,15.374H22.395a.766.766,0,0,0,.739-.558L26.208,4.054a.768.768,0,0,0-.739-.98H6.732L6.183.6A.769.769,0,0,0,5.432,0H.769a.769.769,0,1,0,0,1.537H4.815L7.591,14.028a2.3,2.3,0,0,0,.916,4.42H22.395a.769.769,0,1,0,0-1.537H8.507a.769.769,0,1,1,0-1.537Zm0,0" transform="translate(0 0)"/><path class="a" d="M151,362.31A2.306,2.306,0,1,0,153.306,360,2.309,2.309,0,0,0,151,362.31Zm0,0" transform="translate(-143.262 -341.556)"/><path class="a" d="M362,362.31A2.306,2.306,0,1,0,364.31,360,2.309,2.309,0,0,0,362,362.31Zm0,0" transform="translate(-343.453 -341.556)"/></svg>