<svg xmlns="http://www.w3.org/2000/svg" width="19.156" height="22.961" viewBox="0 0 19.156 22.961"><defs><style>.a{fill:#4f32fe;}</style></defs><path class="a" d="M92.562,11.06a5.351,5.351,0,0,0,3.91-1.62,5.351,5.351,0,0,0,1.62-3.91,5.352,5.352,0,0,0-1.62-3.91,5.529,5.529,0,0,0-7.82,0,5.351,5.351,0,0,0-1.62,3.91,5.351,5.351,0,0,0,1.62,3.91,5.352,5.352,0,0,0,3.91,1.62Zm0,0" transform="translate(-83.129 0)"/><path class="a" d="M19.11,253.881a13.66,13.66,0,0,0-.186-1.451,11.431,11.431,0,0,0-.357-1.459,7.2,7.2,0,0,0-.6-1.36,5.134,5.134,0,0,0-.9-1.178,3.987,3.987,0,0,0-1.3-.816,4.489,4.489,0,0,0-1.658-.3,1.683,1.683,0,0,0-.9.381c-.269.176-.585.379-.936.6a5.366,5.366,0,0,1-1.212.534,4.7,4.7,0,0,1-2.964,0,5.352,5.352,0,0,1-1.211-.534c-.348-.223-.664-.426-.937-.6a1.681,1.681,0,0,0-.9-.381,4.484,4.484,0,0,0-1.658.3,3.984,3.984,0,0,0-1.3.816,5.134,5.134,0,0,0-.9,1.178,7.219,7.219,0,0,0-.6,1.361,11.457,11.457,0,0,0-.357,1.459,13.611,13.611,0,0,0-.186,1.451c-.03.439-.046.9-.046,1.356a3.813,3.813,0,0,0,1.132,2.884,4.076,4.076,0,0,0,2.918,1.064H15.106a4.076,4.076,0,0,0,2.918-1.064,3.811,3.811,0,0,0,1.133-2.885c0-.463-.016-.919-.046-1.356Zm0,0" transform="translate(0 -236.225)"/></svg>